<svg width="512" height="512" viewBox="0 0 512 512" fill="none" xmlns="http://www.w3.org/2000/svg">
<g clip-path="url(#clip0_116_2)">
<path d="M256 93.0917C281.707 93.0917 302.546 72.2524 302.546 46.5458C302.546 20.8393 281.707 0 256 0C230.294 0 209.455 20.8393 209.455 46.5458C209.455 72.2524 230.294 93.0917 256 93.0917Z" fill="black"/>
<path d="M116.364 93.0917C142.071 93.0917 162.91 72.2524 162.91 46.5458C162.91 20.8393 142.071 0 116.364 0C90.6576 0 69.8184 20.8393 69.8184 46.5458C69.8184 72.2524 90.6576 93.0917 116.364 93.0917Z" fill="black"/>
<path d="M395.637 93.0917C421.344 93.0917 442.183 72.2524 442.183 46.5458C442.183 20.8393 421.344 0 395.637 0C369.931 0 349.091 20.8393 349.091 46.5458C349.091 72.2524 369.931 93.0917 395.637 93.0917Z" fill="black"/>
<path d="M256 232.728C281.707 232.728 302.546 211.889 302.546 186.182C302.546 160.476 281.707 139.636 256 139.636C230.294 139.636 209.455 160.476 209.455 186.182C209.455 211.889 230.294 232.728 256 232.728Z" fill="black"/>
<path d="M116.364 232.728C142.071 232.728 162.91 211.889 162.91 186.182C162.91 160.476 142.071 139.636 116.364 139.636C90.6576 139.636 69.8184 160.476 69.8184 186.182C69.8184 211.889 90.6576 232.728 116.364 232.728Z" fill="black"/>
<path d="M395.637 232.728C421.344 232.728 442.183 211.889 442.183 186.182C442.183 160.476 421.344 139.636 395.637 139.636C369.931 139.636 349.091 160.476 349.091 186.182C349.091 211.889 369.931 232.728 395.637 232.728Z" fill="black"/>
<path d="M256 372.365C281.707 372.365 302.546 351.525 302.546 325.819C302.546 300.112 281.707 279.273 256 279.273C230.294 279.273 209.455 300.112 209.455 325.819C209.455 351.525 230.294 372.365 256 372.365Z" fill="black"/>
<path d="M256 512.001C281.707 512.001 302.546 491.162 302.546 465.455C302.546 439.749 281.707 418.909 256 418.909C230.294 418.909 209.455 439.749 209.455 465.455C209.455 491.162 230.294 512.001 256 512.001Z" fill="black"/>
<path d="M116.364 372.365C142.071 372.365 162.91 351.525 162.91 325.819C162.91 300.112 142.071 279.273 116.364 279.273C90.6576 279.273 69.8184 300.112 69.8184 325.819C69.8184 351.525 90.6576 372.365 116.364 372.365Z" fill="black"/>
<path d="M395.637 372.365C421.344 372.365 442.183 351.525 442.183 325.819C442.183 300.112 421.344 279.273 395.637 279.273C369.931 279.273 349.091 300.112 349.091 325.819C349.091 351.525 369.931 372.365 395.637 372.365Z" fill="black"/>
</g>
<defs>
<clipPath id="clip0_116_2">
<rect width="512" height="512" fill="white"/>
</clipPath>
</defs>
</svg>
