<svg width="26" height="72" viewBox="0 0 26 72" fill="none" xmlns="http://www.w3.org/2000/svg">
<path d="M11.9002 65.86L12.0402 66L12.0402 1.44003C12.2935 0.960025 12.6135 0.720032 13.0002 0.720032C13.3869 0.720032 13.7069 0.960025 13.9602 1.44003L13.9602 66L14.1002 65.86C16.6335 62.56 19.8669 60.4 23.8002 59.38C24.5069 59.1867 24.9069 59.09 25.0002 59.09C25.3535 59.09 25.5302 59.4267 25.5302 60.1C25.5302 60.48 25.4902 60.7267 25.4102 60.84C25.3302 60.9534 25.1302 61.04 24.8102 61.1C24.5835 61.1667 24.3102 61.2334 23.9902 61.3C21.6569 61.8734 19.5769 62.9667 17.7502 64.58C15.9302 66.2 14.5702 68.1467 13.6702 70.42C13.4769 70.9 13.3002 71.1867 13.1402 71.28C12.7269 71.28 12.4569 70.9934 12.3302 70.42C11.4302 68.1467 10.0702 66.2 8.25022 64.58C6.42355 62.9667 4.34355 61.8734 2.01022 61.3C1.91022 61.2667 1.76688 61.2334 1.58022 61.2C1.38688 61.1667 1.25688 61.1434 1.19022 61.13C1.13022 61.11 1.03355 61.0767 0.900215 61.03C0.773548 60.9834 0.686882 60.9267 0.640215 60.86C0.593548 60.8 0.553549 60.7067 0.520216 60.58C0.486883 60.4467 0.470215 60.2867 0.470215 60.1C0.470215 59.4267 0.646882 59.09 1.00022 59.09C1.09355 59.09 1.49355 59.1867 2.20022 59.38C6.00688 60.34 9.24022 62.5 11.9002 65.86Z" fill="black"/>
</svg>
