<svg width="241" height="86" viewBox="0 0 241 86" fill="none" xmlns="http://www.w3.org/2000/svg">
<path d="M2.28917 46.0908C0.763054 45.3164 0 44.2231 0 42.8108C0 41.3986 0.763054 40.3053 2.28917 
39.5308H223.04C215.273 33.7453 209.259 26.7525 205 18.5525C202.267 
13.2908 200.467 8.0975 199.602 2.9725C199.602 2.74473 199.568 2.51694 199.499 
2.28917C199.454 2.08417 199.431 1.92472 199.431 1.81084C199.431 0.603614 200.524 0 
202.711 0C204.032 0 204.875 0.13667 205.239 0.410003C205.626 0.683336 205.934 
1.30972 206.162 2.28917C206.481 4.47583 207.084 6.71945 207.973 9.02C210.364 16.3544 
214.35 22.8917 219.931 28.6317C225.511 34.3717 232.014 38.4944 239.44 41C240.419 
41.3417 240.909 41.9453 240.909 42.8108C240.909 43.6764 240.419 44.28 239.44 
44.6217C232.014 47.1272 225.511 51.25 219.931 56.99C214.35 62.73 210.364 69.2672 
207.973 76.6017C207.198 78.9022 206.594 81.0889 206.162 83.1617C205.934 
84.255 205.626 84.9383 205.239 85.2117C204.875 85.485 204.032 85.6217 202.711 
85.6217C200.41 85.6217 199.26 85.0181 199.26 83.8108C199.26 83.4919 199.59 82.1253 
200.251 79.7108C203.645 66.0442 211.241 54.8375 223.04 46.0908H2.28917Z" fill="black"/>
</svg>
